<svg width="800" height="800" viewBox="80.45700073242188 29.256988525390625 870.4000244140625 906.9720153808594" class="icon" xmlns="http://www.w3.org/2000/svg" version="1.1" xmlns:xlink="http://www.w3.org/1999/xlink"><path d="M811.886 899.657H234.057c-73.143 0-124.343-58.514-124.343-124.343V541.257H885.03c21.942 0 36.571 14.629 36.571 36.572v204.8c0 65.828-51.2 117.028-109.714 117.028" fill="#F4B1B2"></path><path d="M760.686 936.229H263.314c-102.4 0-182.857-80.458-182.857-182.858v-460.8c0-102.4 80.457-182.857 182.857-182.857H768c102.4 0 182.857 80.457 182.857 182.857v460.8c-7.314 95.086-87.771 182.858-190.171 182.858M263.314 160.914c-73.143 0-131.657 58.515-131.657 131.657v460.8c0 73.143 58.514 131.658 131.657 131.658H768c73.143 0 131.657-58.515 131.657-131.658v-460.8c0-73.142-58.514-131.657-131.657-131.657z" fill="#D72822"></path><path d="M731.429 256v-65.829c0-73.142-43.886-131.657-102.4-131.657H387.657c-58.514 0-102.4 58.515-102.4 131.657V256z" fill="#F4B1B2"></path><path d="M731.429 285.257H263.314v-95.086c0-87.771 58.515-160.914 131.657-160.914h241.372C709.486 29.257 768 102.4 768 190.171v87.772zm-416.915-58.514H716.8V190.17c0-58.514-36.571-102.4-80.457-102.4H387.657c-43.886 0-80.457 43.886-80.457 102.4v36.572z" fill="#D72822"></path><path d="M833.829 285.257H190.17c-14.628 0-29.257-14.628-29.257-29.257s14.629-29.257 29.257-29.257h643.66c14.628 0 29.257 14.628 29.257 29.257s-14.629 29.257-29.257 29.257" fill="#D72822"></path><path d="m378.88 546.158 158.208 118.125-30.574 40.96L348.16 587.191z" fill="#CB2A24"></path><path d="m468.26 674.304 261.852-275.895 37.083 35.255-261.851 275.895z" fill="#CB2A24"></path></svg>